<svg xmlns="http://www.w3.org/2000/svg" viewBox="0 0 100 100" preserveAspectRatio="xMidYMid" width="100" height="100" style="shape-rendering: auto; display: block; background: transparent;" xmlns:xlink="http://www.w3.org/1999/xlink"><g><g transform="rotate(0 50 50)">
  <rect fill="#cec178" height="18" width="6" ry="3.6" rx="3" y="18" x="47">
    <animate repeatCount="indefinite" begin="-2.083333333333333s" dur="2.272727272727273s" keyTimes="0;1" values="1;0" attributeName="opacity"></animate>
  </rect>
</g><g transform="rotate(30 50 50)">
  <rect fill="#cec178" height="12" width="6" ry="3.6" rx="3" y="24" x="47">
    <animate repeatCount="indefinite" begin="-1.8939393939393938s" dur="2.272727272727273s" keyTimes="0;1" values="1;0" attributeName="opacity"></animate>
  </rect>
</g><g transform="rotate(60 50 50)">
  <rect fill="#cec178" height="18" width="6" ry="3.6" rx="3" y="18" x="47">
    <animate repeatCount="indefinite" begin="-1.7045454545454544s" dur="2.272727272727273s" keyTimes="0;1" values="1;0" attributeName="opacity"></animate>
  </rect>
</g><g transform="rotate(90 50 50)">
  <rect fill="#cec178" height="12" width="6" ry="3.6" rx="3" y="24" x="47">
    <animate repeatCount="indefinite" begin="-1.5151515151515151s" dur="2.272727272727273s" keyTimes="0;1" values="1;0" attributeName="opacity"></animate>
  </rect>
</g><g transform="rotate(120 50 50)">
  <rect fill="#cec178" height="18" width="6" ry="3.6" rx="3" y="18" x="47">
    <animate repeatCount="indefinite" begin="-1.3257575757575757s" dur="2.272727272727273s" keyTimes="0;1" values="1;0" attributeName="opacity"></animate>
  </rect>
</g><g transform="rotate(150 50 50)">
  <rect fill="#cec178" height="12" width="6" ry="3.6" rx="3" y="24" x="47">
    <animate repeatCount="indefinite" begin="-1.1363636363636362s" dur="2.272727272727273s" keyTimes="0;1" values="1;0" attributeName="opacity"></animate>
  </rect>
</g><g transform="rotate(180 50 50)">
  <rect fill="#cec178" height="18" width="6" ry="3.6" rx="3" y="18" x="47">
    <animate repeatCount="indefinite" begin="-0.9469696969696969s" dur="2.272727272727273s" keyTimes="0;1" values="1;0" attributeName="opacity"></animate>
  </rect>
</g><g transform="rotate(210 50 50)">
  <rect fill="#cec178" height="12" width="6" ry="3.6" rx="3" y="24" x="47">
    <animate repeatCount="indefinite" begin="-0.7575757575757576s" dur="2.272727272727273s" keyTimes="0;1" values="1;0" attributeName="opacity"></animate>
  </rect>
</g><g transform="rotate(240 50 50)">
  <rect fill="#cec178" height="18" width="6" ry="3.6" rx="3" y="18" x="47">
    <animate repeatCount="indefinite" begin="-0.5681818181818181s" dur="2.272727272727273s" keyTimes="0;1" values="1;0" attributeName="opacity"></animate>
  </rect>
</g><g transform="rotate(270 50 50)">
  <rect fill="#cec178" height="12" width="6" ry="3.6" rx="3" y="24" x="47">
    <animate repeatCount="indefinite" begin="-0.3787878787878788s" dur="2.272727272727273s" keyTimes="0;1" values="1;0" attributeName="opacity"></animate>
  </rect>
</g><g transform="rotate(300 50 50)">
  <rect fill="#cec178" height="18" width="6" ry="3.6" rx="3" y="18" x="47">
    <animate repeatCount="indefinite" begin="-0.1893939393939394s" dur="2.272727272727273s" keyTimes="0;1" values="1;0" attributeName="opacity"></animate>
  </rect>
</g><g transform="rotate(330 50 50)">
  <rect fill="#cec178" height="12" width="6" ry="3.6" rx="3" y="24" x="47">
    <animate repeatCount="indefinite" begin="0s" dur="2.272727272727273s" keyTimes="0;1" values="1;0" attributeName="opacity"></animate>
  </rect>
</g><g></g></g><!-- [ldio] generated by https://loading.io --></svg>